<?xml version="1.0" encoding="UTF-8" standalone="no"?>
<!DOCTYPE svg PUBLIC "-//W3C//DTD SVG 1.1//EN" "http://www.w3.org/Graphics/SVG/1.1/DTD/svg11.dtd">
<svg version="1.1" xmlns="http://www.w3.org/2000/svg" xmlns:xlink="http://www.w3.org/1999/xlink" preserveAspectRatio="xMidYMid meet" viewBox="0 0 2330 1000" width="2330" height="1000"><defs><path d="M2339.52 504.39L1243.31 828.36L1235.08 830.62L1226.84 832.53L1218.59 834.09L1210.34 835.32L1202.1 836.21L1193.89 836.78L1185.7 837.02L1177.54 836.94L1169.43 836.54L1161.37 835.83L1153.37 834.81L1145.43 833.48L1137.57 831.86L1129.8 829.94L1122.12 827.74L1114.53 825.24L1107.06 822.46L1099.7 819.41L1092.47 816.08L1085.37 812.48L1078.41 808.62L1071.59 804.5L1064.94 800.12L1058.45 795.49L1052.13 790.61L1046 785.48L1040.05 780.12L1034.3 774.52L1028.76 768.7L1023.43 762.64L1018.32 756.37L1013.44 749.87L1008.8 743.17L1004.4 736.25L1000.26 729.13L996.38 721.81L992.78 714.29L989.45 706.58L986.4 698.68L983.66 690.6L764.33 0.84L761.7 0L756.99 -1L2334.97 -1L2334.97 502.93L2339.52 504.39Z" id="af68TRCTz"></path><linearGradient id="gradientb4FDscP8Es" gradientUnits="userSpaceOnUse" x1="1111.06" y1="-23.67" x2="1464.99" y2="602.1"><stop style="stop-color: #e36727;stop-opacity: 1" offset="0%"></stop><stop style="stop-color: #a5255d;stop-opacity: 1" offset="100%"></stop></linearGradient></defs><g><g><g><g><filter id="shadow5747624" x="617.99" y="-140" width="1890.54" height="1116.02" filterUnits="userSpaceOnUse" primitiveUnits="userSpaceOnUse"><feFlood></feFlood><feComposite in2="SourceAlpha" operator="in"></feComposite><feGaussianBlur stdDeviation="7.07"></feGaussianBlur><feOffset dx="-30" dy="0" result="afterOffset"></feOffset><feFlood flood-color="#eaa8a8" flood-opacity="0.5"></feFlood><feComposite in2="afterOffset" operator="in"></feComposite><feMorphology operator="dilate" radius="4"></feMorphology><feComposite in2="SourceAlpha" operator="out"></feComposite></filter><path d="M2339.52 504.39L1243.31 828.36L1235.08 830.62L1226.84 832.53L1218.59 834.09L1210.34 835.32L1202.1 836.21L1193.89 836.78L1185.7 837.02L1177.54 836.94L1169.43 836.54L1161.37 835.83L1153.37 834.81L1145.43 833.48L1137.57 831.86L1129.8 829.94L1122.12 827.74L1114.53 825.24L1107.06 822.46L1099.7 819.41L1092.47 816.08L1085.37 812.48L1078.41 808.62L1071.59 804.5L1064.94 800.12L1058.45 795.49L1052.13 790.61L1046 785.48L1040.05 780.12L1034.3 774.52L1028.76 768.7L1023.43 762.64L1018.32 756.37L1013.44 749.87L1008.8 743.17L1004.4 736.25L1000.26 729.13L996.38 721.81L992.78 714.29L989.45 706.58L986.4 698.68L983.66 690.6L764.33 0.84L761.7 0L756.99 -1L2334.97 -1L2334.97 502.93L2339.52 504.39Z" id="kvQd011M" fill="white" fill-opacity="1" filter="url(#shadow5747624)"></path></g><use xlink:href="#af68TRCTz" opacity="1" fill="url(#gradientb4FDscP8Es)"></use></g></g></g></svg>