<?xml version="1.0" encoding="UTF-8" standalone="no"?>
<!DOCTYPE svg PUBLIC "-//W3C//DTD SVG 1.1//EN" "http://www.w3.org/Graphics/SVG/1.1/DTD/svg11.dtd">
<svg version="1.1" xmlns="http://www.w3.org/2000/svg" xmlns:xlink="http://www.w3.org/1999/xlink" preserveAspectRatio="xMidYMid meet" viewBox="0 0 2330 1000" width="2330" height="1000"><defs><path d="M456.53 983.21L438.26 985.71L420.09 987.34L402.04 988.13L384.13 988.1L366.37 987.25L348.79 985.61L331.41 983.2L314.24 980.02L297.31 976.1L280.64 971.44L264.25 966.08L248.16 960.02L232.39 953.29L216.95 945.89L201.88 937.84L187.18 929.16L172.88 919.87L159 909.99L145.56 899.52L132.58 888.48L120.08 876.9L108.08 864.79L96.59 852.16L85.65 839.04L75.27 825.43L65.47 811.35L56.27 796.82L47.69 781.86L39.75 766.49L32.47 750.71L25.87 734.55L19.97 718.02L14.79 701.14L10.36 683.93L6.68 666.39L3.79 648.55L1.7 630.43L0.43 612.04L0 593.39L2337.17 593.39L474.87 979.84L456.53 983.21ZM0 593.39L0 -1L2330.44 -1L2330.44 593.39L0 593.39Z" id="aSCMq5vwu"></path><linearGradient id="gradienta1mtrZ2RZZ" gradientUnits="userSpaceOnUse" x1="522.92" y1="-27.76" x2="1393.89" y2="950.23"><stop style="stop-color: #22a3c3;stop-opacity: 1" offset="0%"></stop><stop style="stop-color: #2570a5;stop-opacity: 1" offset="100%"></stop></linearGradient></defs><g><g><g><g><filter id="shadow14821034" x="-41" y="-42" width="2449.17" height="1071.13" filterUnits="userSpaceOnUse" primitiveUnits="userSpaceOnUse"><feFlood></feFlood><feComposite in2="SourceAlpha" operator="in"></feComposite><feGaussianBlur stdDeviation="1"></feGaussianBlur><feOffset dx="-30" dy="0" result="afterOffset"></feOffset><feFlood flood-color="#84aec8" flood-opacity="0.5"></feFlood><feComposite in2="afterOffset" operator="in"></feComposite><feMorphology operator="dilate" radius="4"></feMorphology><feComposite in2="SourceAlpha" operator="out"></feComposite></filter><path d="M456.53 983.21L438.26 985.71L420.09 987.34L402.04 988.13L384.13 988.1L366.37 987.25L348.79 985.61L331.41 983.2L314.24 980.02L297.31 976.1L280.64 971.44L264.25 966.08L248.16 960.02L232.39 953.29L216.95 945.89L201.88 937.84L187.18 929.16L172.88 919.87L159 909.99L145.56 899.52L132.58 888.48L120.08 876.9L108.08 864.79L96.59 852.16L85.65 839.04L75.27 825.43L65.47 811.35L56.27 796.82L47.69 781.86L39.75 766.49L32.47 750.71L25.87 734.55L19.97 718.02L14.79 701.14L10.36 683.93L6.68 666.39L3.79 648.55L1.7 630.43L0.43 612.04L0 593.39L2337.17 593.39L474.87 979.84L456.53 983.21ZM0 593.39L0 -1L2330.44 -1L2330.44 593.39L0 593.39Z" id="b1vJ0p9yPg" fill="white" fill-opacity="1" filter="url(#shadow14821034)"></path></g><use xlink:href="#aSCMq5vwu" opacity="1" fill="url(#gradienta1mtrZ2RZZ)"></use></g></g></g></svg>