<?xml version="1.0" encoding="UTF-8" standalone="no"?>
<!DOCTYPE svg PUBLIC "-//W3C//DTD SVG 1.1//EN" "http://www.w3.org/Graphics/SVG/1.1/DTD/svg11.dtd">
<svg version="1.1" xmlns="http://www.w3.org/2000/svg" xmlns:xlink="http://www.w3.org/1999/xlink" preserveAspectRatio="xMidYMid meet" viewBox="0 0 2330 1000" width="2330" height="1000"><defs><path d="M619.49 848.13L609.94 849.69L600.38 851.03L590.82 852.13L581.26 853.01L571.69 853.67L562.14 854.1L552.59 854.31L543.05 854.3L533.53 854.07L524.03 853.61L514.56 852.94L505.11 852.05L495.69 850.95L486.31 849.63L476.96 848.09L467.66 846.34L458.41 844.38L449.2 842.21L440.05 839.82L430.95 837.23L421.92 834.43L412.95 831.42L404.05 828.2L395.22 824.78L386.46 821.16L377.79 817.33L369.2 813.29L360.69 809.06L352.28 804.63L343.96 799.99L335.74 795.16L327.62 790.13L319.6 784.91L311.7 779.49L303.9 773.87L296.23 768.06L288.67 762.06L281.24 755.87L273.94 749.49L0 504.39L2339.52 504.39L629.02 846.34L619.49 848.13ZM0 504.39L0 -1L2332.79 -1L2332.79 504.39L0 504.39Z" id="cWGgLxV1D"></path><linearGradient id="gradienta6yKQbXSr" gradientUnits="userSpaceOnUse" x1="523.45" y1="-24.14" x2="1395.3" y2="821.54"><stop style="stop-color: #22a3c3;stop-opacity: 1" offset="0%"></stop><stop style="stop-color: #2570a5;stop-opacity: 1" offset="100%"></stop></linearGradient></defs><g><g><g><g><filter id="shadow3676428" x="-41" y="-42" width="2451.52" height="937.31" filterUnits="userSpaceOnUse" primitiveUnits="userSpaceOnUse"><feFlood></feFlood><feComposite in2="SourceAlpha" operator="in"></feComposite><feGaussianBlur stdDeviation="1"></feGaussianBlur><feOffset dx="-30" dy="0" result="afterOffset"></feOffset><feFlood flood-color="#84aec8" flood-opacity="0.5"></feFlood><feComposite in2="afterOffset" operator="in"></feComposite><feMorphology operator="dilate" radius="4"></feMorphology><feComposite in2="SourceAlpha" operator="out"></feComposite></filter><path d="M619.49 848.13L609.94 849.69L600.38 851.03L590.82 852.13L581.26 853.01L571.69 853.67L562.14 854.1L552.59 854.31L543.05 854.3L533.53 854.07L524.03 853.61L514.56 852.94L505.11 852.05L495.69 850.95L486.31 849.63L476.96 848.09L467.66 846.34L458.41 844.38L449.2 842.21L440.05 839.82L430.95 837.23L421.92 834.43L412.95 831.42L404.05 828.2L395.22 824.78L386.46 821.16L377.79 817.33L369.2 813.29L360.69 809.06L352.28 804.63L343.96 799.99L335.74 795.16L327.62 790.13L319.6 784.91L311.7 779.49L303.9 773.87L296.23 768.06L288.67 762.06L281.24 755.87L273.94 749.49L0 504.39L2339.52 504.39L629.02 846.34L619.49 848.13ZM0 504.39L0 -1L2332.79 -1L2332.79 504.39L0 504.39Z" id="c8bcK9jsA" fill="white" fill-opacity="1" filter="url(#shadow3676428)"></path></g><use xlink:href="#cWGgLxV1D" opacity="1" fill="url(#gradienta6yKQbXSr)"></use></g></g></g></svg>