<?xml version="1.0" encoding="UTF-8" standalone="no"?>
<!DOCTYPE svg PUBLIC "-//W3C//DTD SVG 1.1//EN" "http://www.w3.org/Graphics/SVG/1.1/DTD/svg11.dtd">
<svg version="1.1" xmlns="http://www.w3.org/2000/svg" xmlns:xlink="http://www.w3.org/1999/xlink" preserveAspectRatio="xMidYMid meet" viewBox="0 0 2330 1000" width="2330" height="1000"><defs><path d="M651.43 990L640.46 992.12L629.46 993.95L618.46 995.49L607.46 996.73L596.45 997.68L585.44 998.33L574.45 998.7L563.47 998.78L552.52 998.58L541.59 998.09L530.69 997.32L519.83 996.27L509.01 994.94L498.24 993.33L487.53 991.44L476.87 989.28L466.27 986.85L455.75 984.14L445.3 981.17L434.93 977.93L424.64 974.42L414.45 970.65L404.35 966.61L394.35 962.31L384.46 957.75L374.69 952.94L365.03 947.86L355.49 942.53L346.08 936.95L336.81 931.11L327.67 925.03L318.68 918.69L309.84 912.11L301.15 905.28L292.62 898.21L284.26 890.9L276.08 883.34L268.06 875.55L260.23 867.52L0 593.39L2337.17 593.39L662.38 987.57L651.43 990ZM0 593.39L0 -1L2330.44 -1L2330.44 593.39L0 593.39Z" id="d21f0CusyX"></path><linearGradient id="gradientg7qYRwvAm8" gradientUnits="userSpaceOnUse" x1="522.92" y1="-28.05" x2="1393.89" y2="960.47"><stop style="stop-color: #22a3c3;stop-opacity: 1" offset="0%"></stop><stop style="stop-color: #2570a5;stop-opacity: 1" offset="100%"></stop></linearGradient></defs><g><g><g><g><filter id="shadow9552100" x="-41" y="-42" width="2449.17" height="1081.78" filterUnits="userSpaceOnUse" primitiveUnits="userSpaceOnUse"><feFlood></feFlood><feComposite in2="SourceAlpha" operator="in"></feComposite><feGaussianBlur stdDeviation="1"></feGaussianBlur><feOffset dx="-30" dy="0" result="afterOffset"></feOffset><feFlood flood-color="#84aec8" flood-opacity="0.5"></feFlood><feComposite in2="afterOffset" operator="in"></feComposite><feMorphology operator="dilate" radius="4"></feMorphology><feComposite in2="SourceAlpha" operator="out"></feComposite></filter><path d="M651.43 990L640.46 992.12L629.46 993.95L618.46 995.49L607.46 996.73L596.45 997.68L585.44 998.33L574.45 998.7L563.47 998.78L552.52 998.58L541.59 998.09L530.69 997.32L519.83 996.27L509.01 994.94L498.24 993.33L487.53 991.44L476.87 989.28L466.27 986.85L455.75 984.14L445.3 981.17L434.93 977.93L424.64 974.42L414.45 970.65L404.35 966.61L394.35 962.31L384.46 957.75L374.69 952.94L365.03 947.86L355.49 942.53L346.08 936.95L336.81 931.11L327.67 925.03L318.68 918.69L309.84 912.11L301.15 905.28L292.62 898.21L284.26 890.9L276.08 883.34L268.06 875.55L260.23 867.52L0 593.39L2337.17 593.39L662.38 987.57L651.43 990ZM0 593.39L0 -1L2330.44 -1L2330.44 593.39L0 593.39Z" id="fXa2alCVc" fill="white" fill-opacity="1" filter="url(#shadow9552100)"></path></g><use xlink:href="#d21f0CusyX" opacity="1" fill="url(#gradientg7qYRwvAm8)"></use></g></g></g></svg>