<?xml version="1.0" encoding="UTF-8" standalone="no"?>
<!DOCTYPE svg PUBLIC "-//W3C//DTD SVG 1.1//EN" "http://www.w3.org/Graphics/SVG/1.1/DTD/svg11.dtd">
<svg version="1.1" xmlns="http://www.w3.org/2000/svg" xmlns:xlink="http://www.w3.org/1999/xlink" preserveAspectRatio="xMidYMid meet" viewBox="0 0 2250 600" width="2000" height="533.33"><defs><path d="M2330 351.63L2330 598.18L1.41 598.18L0.01 204.75L-8.03 204.24L-5.15 202.48L8.69 194.21L22.65 186.23L36.74 178.52L50.94 171.09L65.27 163.94L79.71 157.07L94.26 150.49L108.91 144.18L123.67 138.17L138.52 132.43L153.46 126.98L168.5 121.81L183.61 116.93L198.81 112.34L214.08 108.04L229.42 104.02L244.83 100.29L260.3 96.86L275.84 93.71L291.42 90.86L307.06 88.29L322.75 86.02L338.47 84.04L354.24 82.36L370.04 80.97L385.86 79.88L401.72 79.08L417.59 78.58L433.49 78.38L449.39 78.48L465.31 78.88L481.23 79.57L497.15 80.57L513.07 81.87L528.98 83.47L544.87 85.37L560.76 87.58L576.62 90.09L592.45 92.91L608.26 96.03L623.78 99.2L639.31 102.29L654.83 105.29L670.36 108.2L685.89 111.02L701.43 113.75L716.96 116.4L732.5 118.95L748.04 121.42L763.59 123.8L779.13 126.09L794.68 128.3L810.24 130.41L825.79 132.44L841.35 134.38L856.91 136.23L872.47 137.99L888.03 139.67L903.6 141.26L919.17 142.75L934.75 144.16L950.32 145.49L965.9 146.72L981.48 147.87L997.06 148.92L1012.65 149.89L1028.24 150.77L1043.83 151.57L1059.42 152.27L1075.02 152.89L1090.62 153.41L1106.22 153.85L1121.82 154.21L1137.43 154.47L1153.04 154.65L1168.65 154.73L1184.27 154.73L1199.89 154.64L1215.5 154.46L1231.13 154.2L1255.22 153.66L1279.48 152.99L1303.92 152.2L1328.53 151.29L1353.33 150.24L1378.29 149.07L1403.43 147.78L1428.75 146.36L1454.24 144.81L1479.9 143.14L1505.75 141.34L1531.76 139.41L1557.96 137.36L1584.32 135.18L1610.87 132.88L1637.58 130.45L1664.48 127.89L1691.55 125.21L1718.79 122.4L1746.21 119.47L1773.8 116.41L1801.57 113.22L1829.52 109.91L1857.64 106.47L1885.94 102.91L1914.41 99.22L1943.05 95.4L1971.88 91.46L2000.87 87.39L2030.04 83.19L2059.39 78.87L2088.91 74.43L2118.61 69.85L2148.49 65.15L2178.53 60.33L2208.76 55.38L2239.16 50.3L2269.73 45.1L2300.48 39.77L2331.41 34.31L2331.41 351.72L2330 351.63Z" id="a1dY5IOGi"></path><linearGradient id="gradientaJGQIPMoz" gradientUnits="userSpaceOnUse" x1="1308.45" y1="34.31" x2="2087.53" y2="651.68"><stop style="stop-color: #22a3c3;stop-opacity: 1" offset="0%"></stop><stop style="stop-color: #2570a5;stop-opacity: 1" offset="100%"></stop></linearGradient></defs><g><g><g><g><filter id="shadow5429580" x="-49.03" y="-6.69" width="2451.43" height="645.87" filterUnits="userSpaceOnUse" primitiveUnits="userSpaceOnUse"><feFlood></feFlood><feComposite in2="SourceAlpha" operator="in"></feComposite><feGaussianBlur stdDeviation="1"></feGaussianBlur><feOffset dx="-30" dy="0" result="afterOffset"></feOffset><feFlood flood-color="#83aec7" flood-opacity="0.5"></feFlood><feComposite in2="afterOffset" operator="in"></feComposite><feMorphology operator="dilate" radius="4"></feMorphology><feComposite in2="SourceAlpha" operator="out"></feComposite></filter><path d="M2330 351.63L2330 598.18L1.41 598.18L0.01 204.75L-8.03 204.24L-5.15 202.48L8.69 194.21L22.65 186.23L36.74 178.52L50.94 171.09L65.27 163.94L79.71 157.07L94.26 150.49L108.91 144.18L123.67 138.17L138.52 132.43L153.46 126.98L168.5 121.81L183.61 116.93L198.81 112.34L214.08 108.04L229.42 104.02L244.83 100.29L260.3 96.86L275.84 93.71L291.42 90.86L307.06 88.29L322.75 86.02L338.47 84.04L354.24 82.36L370.04 80.97L385.86 79.88L401.72 79.08L417.59 78.58L433.49 78.38L449.39 78.48L465.31 78.88L481.23 79.57L497.15 80.57L513.07 81.87L528.98 83.47L544.87 85.37L560.76 87.58L576.62 90.09L592.45 92.91L608.26 96.03L623.78 99.2L639.31 102.29L654.83 105.29L670.36 108.2L685.89 111.02L701.43 113.75L716.96 116.4L732.5 118.95L748.04 121.42L763.59 123.8L779.13 126.09L794.68 128.3L810.24 130.41L825.79 132.44L841.35 134.38L856.91 136.23L872.47 137.99L888.03 139.67L903.6 141.26L919.17 142.75L934.75 144.16L950.32 145.49L965.9 146.72L981.48 147.87L997.06 148.92L1012.65 149.89L1028.24 150.77L1043.83 151.57L1059.42 152.27L1075.02 152.89L1090.62 153.41L1106.22 153.85L1121.82 154.21L1137.43 154.47L1153.04 154.65L1168.65 154.73L1184.27 154.73L1199.89 154.64L1215.5 154.46L1231.13 154.2L1255.22 153.66L1279.48 152.99L1303.92 152.2L1328.53 151.29L1353.33 150.24L1378.29 149.07L1403.43 147.78L1428.75 146.36L1454.24 144.81L1479.9 143.14L1505.75 141.34L1531.76 139.41L1557.96 137.36L1584.32 135.18L1610.87 132.88L1637.58 130.45L1664.48 127.89L1691.55 125.21L1718.79 122.4L1746.21 119.47L1773.8 116.41L1801.57 113.22L1829.52 109.91L1857.64 106.47L1885.94 102.91L1914.41 99.22L1943.05 95.4L1971.88 91.46L2000.87 87.39L2030.04 83.19L2059.39 78.87L2088.91 74.43L2118.61 69.85L2148.49 65.15L2178.53 60.33L2208.76 55.38L2239.16 50.3L2269.73 45.1L2300.48 39.77L2331.41 34.31L2331.41 351.72L2330 351.63Z" id="e49shWVm6" fill="white" fill-opacity="1" filter="url(#shadow5429580)"></path></g><use xlink:href="#a1dY5IOGi" opacity="1" fill="url(#gradientaJGQIPMoz)"></use></g></g></g></svg>