<?xml version="1.0" encoding="UTF-8" standalone="no"?>
<!DOCTYPE svg PUBLIC "-//W3C//DTD SVG 1.1//EN" "http://www.w3.org/Graphics/SVG/1.1/DTD/svg11.dtd">
<svg version="1.1" xmlns="http://www.w3.org/2000/svg" xmlns:xlink="http://www.w3.org/1999/xlink" preserveAspectRatio="xMidYMid meet" viewBox="0 0 2330 500" width="2330" height="500"><defs><path d="M217.97 73.54L227.98 70.9L238.02 68.38L248.07 65.99L258.15 63.72L268.25 61.57L278.37 59.55L288.51 57.66L298.67 55.89L308.84 54.24L319.03 52.72L329.23 51.32L339.45 50.05L349.67 48.9L359.91 47.88L370.16 46.98L380.41 46.21L390.67 45.56L400.94 45.03L411.22 44.63L421.49 44.36L431.77 44.21L442.05 44.18L452.33 44.28L462.61 44.51L472.89 44.86L483.17 45.33L493.44 45.93L503.7 46.66L513.96 47.51L524.21 48.48L534.45 49.58L544.69 50.81L554.91 52.16L565.12 53.63L575.31 55.23L585.49 56.96L595.66 58.81L605.8 60.79L615.93 62.89L626.04 65.11L639.66 68.14L653.41 71.09L667.28 73.96L681.28 76.75L695.42 79.45L709.68 82.07L724.06 84.61L738.58 87.07L753.23 89.45L768 91.74L782.9 93.96L797.93 96.09L813.09 98.14L828.38 100.11L843.8 101.99L859.34 103.8L875.02 105.52L890.82 107.16L906.75 108.72L922.81 110.2L938.99 111.6L955.31 112.91L971.75 114.14L988.33 115.3L1005.03 116.36L1021.86 117.35L1038.82 118.26L1055.91 119.08L1073.12 119.82L1090.47 120.48L1107.94 121.06L1125.54 121.56L1143.27 121.98L1161.13 122.31L1179.11 122.56L1197.23 122.73L1215.47 122.82L1233.85 122.83L1252.35 122.75L1270.98 122.6L1295.85 122.28L1320.89 121.86L1346.13 121.32L1371.54 120.68L1397.13 119.93L1422.9 119.08L1448.86 118.11L1474.99 117.04L1501.31 115.86L1527.81 114.57L1554.48 113.17L1581.34 111.66L1608.38 110.05L1635.6 108.32L1663.01 106.49L1690.59 104.55L1718.35 102.51L1746.3 100.35L1774.42 98.09L1802.73 95.71L1831.22 93.23L1859.89 90.64L1888.74 87.95L1917.77 85.14L1946.98 82.23L1976.37 79.21L2005.95 76.08L2035.7 72.84L2065.64 69.49L2095.75 66.04L2126.05 62.47L2156.53 58.8L2187.19 55.02L2218.03 51.14L2249.05 47.14L2280.25 43.04L2311.63 38.82L2343.2 34.5L2374.94 30.07L2406.87 25.54L2405.55 204.59L2406.87 204.63L2406.87 500L1.45 500L0 132.49L0 132.49L0 132.4L0.3 132.41L217.97 73.54Z" id="a38sRYPOlO"></path><linearGradient id="gradientbYvyayCTC" gradientUnits="userSpaceOnUse" x1="1354.42" y1="25.54" x2="2155.96" y2="545.02"><stop style="stop-color: #22a3c3;stop-opacity: 1" offset="0%"></stop><stop style="stop-color: #2570a5;stop-opacity: 1" offset="100%"></stop></linearGradient></defs><g><g><g><g><filter id="shadow10335949" x="-64" y="-38.46" width="2584.87" height="602.46" filterUnits="userSpaceOnUse" primitiveUnits="userSpaceOnUse"><feFlood></feFlood><feComposite in2="SourceAlpha" operator="in"></feComposite><feGaussianBlur stdDeviation="1"></feGaussianBlur><feOffset dx="-50" dy="0" result="afterOffset"></feOffset><feFlood flood-color="#ceebfa" flood-opacity="0.7"></feFlood><feComposite in2="afterOffset" operator="in"></feComposite><feMorphology operator="dilate" radius="7"></feMorphology><feComposite in2="SourceAlpha" operator="out"></feComposite></filter><path d="M217.97 73.54L227.98 70.9L238.02 68.38L248.07 65.99L258.15 63.72L268.25 61.57L278.37 59.55L288.51 57.66L298.67 55.89L308.84 54.24L319.03 52.72L329.23 51.32L339.45 50.05L349.67 48.9L359.91 47.88L370.16 46.98L380.41 46.21L390.67 45.56L400.94 45.03L411.22 44.63L421.49 44.36L431.77 44.21L442.05 44.18L452.33 44.28L462.61 44.51L472.89 44.86L483.17 45.33L493.44 45.93L503.7 46.66L513.96 47.51L524.21 48.48L534.45 49.58L544.69 50.81L554.91 52.16L565.12 53.63L575.31 55.23L585.49 56.96L595.66 58.81L605.8 60.79L615.93 62.89L626.04 65.11L639.66 68.14L653.41 71.09L667.28 73.96L681.28 76.75L695.42 79.45L709.68 82.07L724.06 84.61L738.58 87.07L753.23 89.45L768 91.74L782.9 93.96L797.93 96.09L813.09 98.14L828.38 100.11L843.8 101.99L859.34 103.8L875.02 105.52L890.82 107.16L906.75 108.72L922.81 110.2L938.99 111.6L955.31 112.91L971.75 114.14L988.33 115.3L1005.03 116.36L1021.86 117.35L1038.82 118.26L1055.91 119.08L1073.12 119.82L1090.47 120.48L1107.94 121.06L1125.54 121.56L1143.27 121.98L1161.13 122.31L1179.11 122.56L1197.23 122.73L1215.47 122.82L1233.85 122.83L1252.35 122.75L1270.98 122.6L1295.85 122.28L1320.89 121.86L1346.13 121.32L1371.54 120.68L1397.13 119.93L1422.9 119.08L1448.86 118.11L1474.99 117.04L1501.31 115.86L1527.81 114.57L1554.48 113.17L1581.34 111.66L1608.38 110.05L1635.6 108.32L1663.01 106.49L1690.59 104.55L1718.35 102.51L1746.3 100.35L1774.42 98.09L1802.73 95.71L1831.22 93.23L1859.89 90.64L1888.74 87.95L1917.77 85.14L1946.98 82.23L1976.37 79.21L2005.95 76.08L2035.7 72.84L2065.64 69.49L2095.75 66.04L2126.05 62.47L2156.53 58.8L2187.19 55.02L2218.03 51.14L2249.05 47.14L2280.25 43.04L2311.63 38.82L2343.2 34.5L2374.94 30.07L2406.87 25.54L2405.55 204.59L2406.87 204.63L2406.87 500L1.45 500L0 132.49L0 132.49L0 132.4L0.3 132.41L217.97 73.54Z" id="ccYMVAJAB" fill="white" fill-opacity="1" filter="url(#shadow10335949)"></path></g><use xlink:href="#a38sRYPOlO" opacity="1" fill="url(#gradientbYvyayCTC)"></use></g></g></g></svg>