<?xml version="1.0" encoding="UTF-8" standalone="no"?>
<!DOCTYPE svg PUBLIC "-//W3C//DTD SVG 1.1//EN" "http://www.w3.org/Graphics/SVG/1.1/DTD/svg11.dtd">
<svg version="1.1" xmlns="http://www.w3.org/2000/svg" xmlns:xlink="http://www.w3.org/1999/xlink" preserveAspectRatio="xMidYMid meet" viewBox="0 0 1400 1200" width="1400" height="1200"><defs><path d="M0 0L1400 0L1400 1200L0 1200L0 0Z" id="im5A4ZFrj"></path><path d="M0 30.5C63.96 30.5 103.93 30.5 119.92 30.5C139.78 30.5 155.87 46.6 155.87 66.45C155.87 73.64 155.87 59.26 155.87 66.45C155.87 86.3 139.78 102.39 119.92 102.39C103.93 102.39 63.96 102.39 0 102.39L0 30.5Z" id="exuyyqeF7"></path><path d="M253.86 67.61C253.86 88.09 237.24 104.71 216.76 104.71C196.28 104.71 179.66 88.09 179.66 67.61C179.66 47.13 196.28 30.5 216.76 30.5C237.24 30.5 253.86 47.13 253.86 67.61Z" id="a4TCE7pB8X"></path><path d="M0 142.64C17.03 142.64 27.67 142.64 31.93 142.64C51.78 142.64 67.87 158.73 67.87 178.58C67.87 185.77 67.87 171.39 67.87 178.58C67.87 198.44 51.78 214.53 31.93 214.53C27.67 214.53 17.03 214.53 0 214.53L0 142.64Z" id="bdOcAzZM0"></path><path d="M162.87 179.74C162.87 200.22 146.24 216.85 125.76 216.85C105.29 216.85 88.66 200.22 88.66 179.74C88.66 159.26 105.29 142.64 125.76 142.64C146.24 142.64 162.87 159.26 162.87 179.74Z" id="c1drxAv8qz"></path><path d="M1400 821.35C1336.04 821.35 1296.07 821.35 1280.08 821.35C1260.22 821.35 1244.13 805.25 1244.13 785.4C1244.13 778.21 1244.13 792.59 1244.13 785.4C1244.13 765.55 1260.22 749.46 1280.08 749.46C1296.07 749.46 1336.04 749.46 1400 749.46L1400 821.35Z" id="bjtB2yAHW"></path><path d="M1146.14 784.24C1146.14 763.76 1162.76 747.14 1183.24 747.14C1203.72 747.14 1220.34 763.76 1220.34 784.24C1220.34 804.72 1203.72 821.35 1183.24 821.35C1162.76 821.35 1146.14 804.72 1146.14 784.24Z" id="fJlBobVBO"></path><path d="M1400 709.21C1382.97 709.21 1372.33 709.21 1368.07 709.21C1348.22 709.21 1332.13 693.12 1332.13 673.26C1332.13 666.08 1332.13 680.45 1332.13 673.26C1332.13 653.41 1348.22 637.32 1368.07 637.32C1372.33 637.32 1382.97 637.32 1400 637.32L1400 709.21Z" id="bDEMJb07e"></path><path d="M1237.13 672.1C1237.13 651.63 1253.76 635 1274.24 635C1294.71 635 1311.34 651.63 1311.34 672.1C1311.34 692.58 1294.71 709.21 1274.24 709.21C1253.76 709.21 1237.13 692.58 1237.13 672.1Z" id="cbBaCFagg"></path></defs><g><g><g><use xlink:href="#im5A4ZFrj" opacity="1" fill="#f2f2f2" fill-opacity="1"></use></g><g><use xlink:href="#exuyyqeF7" opacity="1" fill="#ffffff" fill-opacity="1"></use></g><g><use xlink:href="#a4TCE7pB8X" opacity="1" fill="#ffffff" fill-opacity="1"></use></g><g><use xlink:href="#bdOcAzZM0" opacity="1" fill="#ffffff" fill-opacity="1"></use></g><g><use xlink:href="#c1drxAv8qz" opacity="1" fill="#ffffff" fill-opacity="1"></use></g><g><use xlink:href="#bjtB2yAHW" opacity="1" fill="#ffffff" fill-opacity="1"></use></g><g><use xlink:href="#fJlBobVBO" opacity="1" fill="#ffffff" fill-opacity="1"></use></g><g><use xlink:href="#bDEMJb07e" opacity="1" fill="#ffffff" fill-opacity="1"></use></g><g><use xlink:href="#cbBaCFagg" opacity="1" fill="#ffffff" fill-opacity="1"></use></g></g></g></svg>