<?xml version="1.0" encoding="UTF-8" standalone="no"?>
<!DOCTYPE svg PUBLIC "-//W3C//DTD SVG 1.1//EN" "http://www.w3.org/Graphics/SVG/1.1/DTD/svg11.dtd">
<svg version="1.1" xmlns="http://www.w3.org/2000/svg" xmlns:xlink="http://www.w3.org/1999/xlink" preserveAspectRatio="xMidYMid meet" viewBox="0 0 1400 500" width="1400" height="500"><defs><path d="M0 0L1400 0L1400 500L0 500L0 0Z" id="b2j93SlCT9"></path><path d="M0.78 30.5C105.39 30.5 170.77 30.5 196.92 30.5C216.78 30.5 232.87 46.6 232.87 66.45C232.87 73.64 232.87 59.26 232.87 66.45C232.87 86.3 216.78 102.39 196.92 102.39C170.77 102.39 105.39 102.39 0.78 102.39L0.78 30.5Z" id="g5HKFE2UMS"></path><path d="M341.86 67.61C341.86 88.09 325.24 104.71 304.76 104.71C284.28 104.71 267.66 88.09 267.66 67.61C267.66 47.13 284.28 30.5 304.76 30.5C325.24 30.5 341.86 47.13 341.86 67.61Z" id="g7y5QxjJuW"></path><path d="M-4.28 142.64C44.9 142.64 75.63 142.64 87.93 142.64C107.78 142.64 123.87 158.73 123.87 178.58C123.87 185.77 123.87 171.39 123.87 178.58C123.87 198.54 107.89 214.82 87.94 215.18C75.64 215.4 44.9 215.96 -4.28 216.85L-4.28 142.64Z" id="a6vIm8BI77"></path><path d="M232.87 179.74C232.87 200.22 216.24 216.85 195.76 216.85C175.29 216.85 158.66 200.22 158.66 179.74C158.66 159.26 175.29 142.64 195.76 142.64C216.24 142.64 232.87 159.26 232.87 179.74Z" id="b3GwRVqOUd"></path><path d="M1398.07 468.59C1293.46 468.59 1228.08 468.59 1201.93 468.59C1182.08 468.59 1165.99 452.5 1165.99 432.65C1165.99 425.46 1165.99 439.84 1165.99 432.65C1165.99 412.8 1182.08 396.7 1201.93 396.7C1228.08 396.7 1293.46 396.7 1398.07 396.7L1398.07 468.59Z" id="c15SbQnt4G"></path><path d="M1056.99 431.49C1056.99 411.01 1073.62 394.38 1094.1 394.38C1114.57 394.38 1131.2 411.01 1131.2 431.49C1131.2 451.97 1114.57 468.59 1094.1 468.59C1073.62 468.59 1056.99 451.97 1056.99 431.49Z" id="bNQl2J4UI"></path><path d="M1403.13 356.46C1353.96 356.46 1323.22 356.46 1310.93 356.46C1291.07 356.46 1274.98 340.36 1274.98 320.51C1274.98 313.32 1274.98 327.7 1274.98 320.51C1274.98 300.56 1290.97 284.28 1310.92 283.92C1323.22 283.69 1353.95 283.14 1403.13 282.25L1403.13 356.46Z" id="aTWhEYIKb"></path><path d="M1165.99 319.35C1165.99 298.87 1182.61 282.25 1203.09 282.25C1223.57 282.25 1240.2 298.87 1240.2 319.35C1240.2 339.83 1223.57 356.46 1203.09 356.46C1182.61 356.46 1165.99 339.83 1165.99 319.35Z" id="cdW3f2fI"></path></defs><g><g><g><use xlink:href="#b2j93SlCT9" opacity="1" fill="#ececec" fill-opacity="1"></use></g><g><use xlink:href="#g5HKFE2UMS" opacity="1" fill="#ffffff" fill-opacity="1"></use></g><g><use xlink:href="#g7y5QxjJuW" opacity="1" fill="#ffffff" fill-opacity="1"></use></g><g><use xlink:href="#a6vIm8BI77" opacity="1" fill="#ffffff" fill-opacity="1"></use></g><g><use xlink:href="#b3GwRVqOUd" opacity="1" fill="#ffffff" fill-opacity="1"></use></g><g><use xlink:href="#c15SbQnt4G" opacity="1" fill="#ffffff" fill-opacity="1"></use></g><g><use xlink:href="#bNQl2J4UI" opacity="1" fill="#ffffff" fill-opacity="1"></use></g><g><use xlink:href="#aTWhEYIKb" opacity="1" fill="#ffffff" fill-opacity="1"></use></g><g><use xlink:href="#cdW3f2fI" opacity="1" fill="#ffffff" fill-opacity="1"></use></g></g></g></svg>