<?xml version="1.0" encoding="UTF-8" standalone="no"?>
<!DOCTYPE svg PUBLIC "-//W3C//DTD SVG 1.1//EN" "http://www.w3.org/Graphics/SVG/1.1/DTD/svg11.dtd">
<svg version="1.1" xmlns="http://www.w3.org/2000/svg" xmlns:xlink="http://www.w3.org/1999/xlink" preserveAspectRatio="xMidYMid meet" viewBox="0 0 2000 1200" width="2000" height="1200"><defs><path d="M0 0L2000 0L2000 1200L0 1200L0 0Z" id="g23rVkCsCU"></path><path d="M0 30.5C63.96 30.5 103.93 30.5 119.92 30.5C139.78 30.5 155.87 46.6 155.87 66.45C155.87 73.64 155.87 59.26 155.87 66.45C155.87 86.3 139.78 102.39 119.92 102.39C103.93 102.39 63.96 102.39 0 102.39L0 30.5Z" id="e86UMaBNbE"></path><path d="M253.86 67.61C253.86 88.09 237.24 104.71 216.76 104.71C196.28 104.71 179.66 88.09 179.66 67.61C179.66 47.13 196.28 30.5 216.76 30.5C237.24 30.5 253.86 47.13 253.86 67.61Z" id="cdiYBMQF"></path><path d="M0 142.64C17.03 142.64 27.67 142.64 31.93 142.64C51.78 142.64 67.87 158.73 67.87 178.58C67.87 185.77 67.87 171.39 67.87 178.58C67.87 198.44 51.78 214.53 31.93 214.53C27.67 214.53 17.03 214.53 0 214.53L0 142.64Z" id="b8rpxK9kyk"></path><path d="M162.87 179.74C162.87 200.22 146.24 216.85 125.76 216.85C105.29 216.85 88.66 200.22 88.66 179.74C88.66 159.26 105.29 142.64 125.76 142.64C146.24 142.64 162.87 159.26 162.87 179.74Z" id="b6FjjvCEDr"></path><path d="M2000 824.38C1936.04 824.38 1896.07 824.38 1880.08 824.38C1860.22 824.38 1844.13 808.28 1844.13 788.43C1844.13 781.24 1844.13 795.62 1844.13 788.43C1844.13 768.58 1860.22 752.49 1880.08 752.49C1896.07 752.49 1936.04 752.49 2000 752.49L2000 824.38Z" id="aXOEJERTR"></path><path d="M1746.14 787.27C1746.14 766.79 1762.76 750.17 1783.24 750.17C1803.72 750.17 1820.34 766.79 1820.34 787.27C1820.34 807.75 1803.72 824.38 1783.24 824.38C1762.76 824.38 1746.14 807.75 1746.14 787.27Z" id="ami8Q5Y09"></path><path d="M2000 712.24C1982.97 712.24 1972.33 712.24 1968.07 712.24C1948.22 712.24 1932.13 696.15 1932.13 676.29C1932.13 669.11 1932.13 683.48 1932.13 676.29C1932.13 656.44 1948.22 640.35 1968.07 640.35C1972.33 640.35 1982.97 640.35 2000 640.35L2000 712.24Z" id="dSX1q4lf"></path><path d="M1837.13 675.14C1837.13 654.66 1853.76 638.03 1874.24 638.03C1894.71 638.03 1911.34 654.66 1911.34 675.14C1911.34 695.61 1894.71 712.24 1874.24 712.24C1853.76 712.24 1837.13 695.61 1837.13 675.14Z" id="bqv0s7yb3"></path></defs><g><g><g><use xlink:href="#g23rVkCsCU" opacity="1" fill="#f2f2f2" fill-opacity="1"></use></g><g><use xlink:href="#e86UMaBNbE" opacity="1" fill="#ffffff" fill-opacity="1"></use></g><g><use xlink:href="#cdiYBMQF" opacity="1" fill="#ffffff" fill-opacity="1"></use></g><g><use xlink:href="#b8rpxK9kyk" opacity="1" fill="#ffffff" fill-opacity="1"></use></g><g><use xlink:href="#b6FjjvCEDr" opacity="1" fill="#ffffff" fill-opacity="1"></use></g><g><use xlink:href="#aXOEJERTR" opacity="1" fill="#ffffff" fill-opacity="1"></use></g><g><use xlink:href="#ami8Q5Y09" opacity="1" fill="#ffffff" fill-opacity="1"></use></g><g><use xlink:href="#dSX1q4lf" opacity="1" fill="#ffffff" fill-opacity="1"></use></g><g><use xlink:href="#bqv0s7yb3" opacity="1" fill="#ffffff" fill-opacity="1"></use></g></g></g></svg>