<?xml version="1.0" encoding="UTF-8" standalone="no"?>
<!DOCTYPE svg PUBLIC "-//W3C//DTD SVG 1.1//EN" "http://www.w3.org/Graphics/SVG/1.1/DTD/svg11.dtd">
<svg version="1.1" xmlns="http://www.w3.org/2000/svg" xmlns:xlink="http://www.w3.org/1999/xlink" preserveAspectRatio="xMidYMid meet" viewBox="0 0 1400 500" width="1400" height="500"><defs><path d="M0 0L1400 0L1400 500L0 500L0 0Z" id="d4ZJAF4Hs"></path><path d="M0 30.5C63.96 30.5 103.93 30.5 119.92 30.5C139.78 30.5 155.87 46.6 155.87 66.45C155.87 73.64 155.87 59.26 155.87 66.45C155.87 86.3 139.78 102.39 119.92 102.39C103.93 102.39 63.96 102.39 0 102.39L0 30.5Z" id="g8DYH7UWB"></path><path d="M253.86 67.61C253.86 88.09 237.24 104.71 216.76 104.71C196.28 104.71 179.66 88.09 179.66 67.61C179.66 47.13 196.28 30.5 216.76 30.5C237.24 30.5 253.86 47.13 253.86 67.61Z" id="c2sLUDwJuM"></path><path d="M0 142.64C17.03 142.64 27.67 142.64 31.93 142.64C51.78 142.64 67.87 158.73 67.87 178.58C67.87 185.77 67.87 171.39 67.87 178.58C67.87 198.44 51.78 214.53 31.93 214.53C27.67 214.53 17.03 214.53 0 214.53L0 142.64Z" id="d1pKEaDnTt"></path><path d="M162.87 179.74C162.87 200.22 146.24 216.85 125.76 216.85C105.29 216.85 88.66 200.22 88.66 179.74C88.66 159.26 105.29 142.64 125.76 142.64C146.24 142.64 162.87 159.26 162.87 179.74Z" id="a1VUY6LlwN"></path><path d="M1400 449.35C1336.04 449.35 1296.07 449.35 1280.08 449.35C1260.22 449.35 1244.13 433.25 1244.13 413.4C1244.13 406.21 1244.13 420.59 1244.13 413.4C1244.13 393.55 1260.22 377.46 1280.08 377.46C1296.07 377.46 1336.04 377.46 1400 377.46L1400 449.35Z" id="d5AyK945mn"></path><path d="M1146.14 412.24C1146.14 391.76 1162.76 375.14 1183.24 375.14C1203.72 375.14 1220.34 391.76 1220.34 412.24C1220.34 432.72 1203.72 449.35 1183.24 449.35C1162.76 449.35 1146.14 432.72 1146.14 412.24Z" id="c1roU8zCOF"></path><path d="M1400 337.21C1382.97 337.21 1372.33 337.21 1368.07 337.21C1348.22 337.21 1332.13 321.12 1332.13 301.26C1332.13 294.08 1332.13 308.45 1332.13 301.26C1332.13 281.41 1348.22 265.32 1368.07 265.32C1372.33 265.32 1382.97 265.32 1400 265.32L1400 337.21Z" id="g4YlMSCVU"></path><path d="M1237.13 300.1C1237.13 279.63 1253.76 263 1274.24 263C1294.71 263 1311.34 279.63 1311.34 300.1C1311.34 320.58 1294.71 337.21 1274.24 337.21C1253.76 337.21 1237.13 320.58 1237.13 300.1Z" id="d2W2okRmwr"></path></defs><g><g><g><use xlink:href="#d4ZJAF4Hs" opacity="1" fill="#f2f2f2" fill-opacity="1"></use></g><g><use xlink:href="#g8DYH7UWB" opacity="1" fill="#ffffff" fill-opacity="1"></use></g><g><use xlink:href="#c2sLUDwJuM" opacity="1" fill="#ffffff" fill-opacity="1"></use></g><g><use xlink:href="#d1pKEaDnTt" opacity="1" fill="#ffffff" fill-opacity="1"></use></g><g><use xlink:href="#a1VUY6LlwN" opacity="1" fill="#ffffff" fill-opacity="1"></use></g><g><use xlink:href="#d5AyK945mn" opacity="1" fill="#ffffff" fill-opacity="1"></use></g><g><use xlink:href="#c1roU8zCOF" opacity="1" fill="#ffffff" fill-opacity="1"></use></g><g><use xlink:href="#g4YlMSCVU" opacity="1" fill="#ffffff" fill-opacity="1"></use></g><g><use xlink:href="#d2W2okRmwr" opacity="1" fill="#ffffff" fill-opacity="1"></use></g></g></g></svg>