<?xml version="1.0" encoding="UTF-8" standalone="no"?>
<!DOCTYPE svg PUBLIC "-//W3C//DTD SVG 1.1//EN" "http://www.w3.org/Graphics/SVG/1.1/DTD/svg11.dtd">
<svg version="1.1" xmlns="http://www.w3.org/2000/svg" xmlns:xlink="http://www.w3.org/1999/xlink" preserveAspectRatio="xMidYMid meet" viewBox="0 0 1000 500" width="1000" height="500"><defs><path d="M0 0L1000 0L1000 500L0 500L0 0Z" id="cWqd3aeYY"></path><path d="M0 54.5C88.45 54.5 143.73 54.5 165.84 54.5C182.63 54.5 196.23 68.11 196.23 84.89C196.23 90.97 196.23 78.82 196.23 84.89C196.23 101.68 182.63 115.29 165.84 115.29C143.73 115.29 88.45 115.29 0 115.29L0 54.5Z" id="a6u9HiObjy"></path><path d="M288.39 85.87C288.39 103.19 274.33 117.25 257.02 117.25C239.7 117.25 225.65 103.19 225.65 85.87C225.65 68.56 239.7 54.5 257.02 54.5C274.33 54.5 288.39 68.56 288.39 85.87Z" id="c5FK2Q9fq1"></path><path d="M-92.16 149.31C-3.71 149.31 51.57 149.31 73.68 149.31C90.47 149.31 104.08 162.92 104.08 179.71C104.08 185.79 104.08 173.63 104.08 179.71C104.08 196.49 90.47 210.1 73.68 210.1C51.57 210.1 -3.71 210.1 -92.16 210.1L-92.16 149.31Z" id="b3ehpvztOF"></path><path d="M196.23 180.69C196.23 198 182.18 212.06 164.86 212.06C147.55 212.06 133.49 198 133.49 180.69C133.49 163.37 147.55 149.31 164.86 149.31C182.18 149.31 196.23 163.37 196.23 180.69Z" id="b1bicb5zOu"></path><path d="M1001.48 456.31C913.03 456.31 857.75 456.31 835.64 456.31C818.86 456.31 805.25 442.7 805.25 425.92C805.25 419.84 805.25 432 805.25 425.92C805.25 409.13 818.86 395.53 835.64 395.53C857.75 395.53 913.03 395.53 1001.48 395.53L1001.48 456.31Z" id="g1u6rJ5Ez4"></path><path d="M713.09 424.94C713.09 407.62 727.15 393.56 744.47 393.56C761.78 393.56 775.84 407.62 775.84 424.94C775.84 442.25 761.78 456.31 744.47 456.31C727.15 456.31 713.09 442.25 713.09 424.94Z" id="h2uJ3ZJiOR"></path><path d="M1093.64 361.5C1005.19 361.5 949.91 361.5 927.8 361.5C911.01 361.5 897.41 347.89 897.41 331.11C897.41 325.03 897.41 337.18 897.41 331.11C897.41 314.32 911.01 300.71 927.8 300.71C949.91 300.71 1005.19 300.71 1093.64 300.71L1093.64 361.5Z" id="j3bbVU4ggA"></path><path d="M805.25 330.12C805.25 312.81 819.31 298.75 836.62 298.75C853.94 298.75 868 312.81 868 330.12C868 347.44 853.94 361.5 836.62 361.5C819.31 361.5 805.25 347.44 805.25 330.12Z" id="eprxeqD9e"></path></defs><g><g><g><use xlink:href="#cWqd3aeYY" opacity="1" fill="#ececec" fill-opacity="1"></use></g><g><use xlink:href="#a6u9HiObjy" opacity="1" fill="#ffffff" fill-opacity="1"></use></g><g><use xlink:href="#c5FK2Q9fq1" opacity="1" fill="#ffffff" fill-opacity="1"></use></g><g><use xlink:href="#b3ehpvztOF" opacity="1" fill="#ffffff" fill-opacity="1"></use></g><g><use xlink:href="#b1bicb5zOu" opacity="1" fill="#ffffff" fill-opacity="1"></use></g><g><use xlink:href="#g1u6rJ5Ez4" opacity="1" fill="#ffffff" fill-opacity="1"></use></g><g><use xlink:href="#h2uJ3ZJiOR" opacity="1" fill="#ffffff" fill-opacity="1"></use></g><g><use xlink:href="#j3bbVU4ggA" opacity="1" fill="#ffffff" fill-opacity="1"></use></g><g><use xlink:href="#eprxeqD9e" opacity="1" fill="#ffffff" fill-opacity="1"></use></g></g></g></svg>