<?xml version="1.0" encoding="UTF-8" standalone="no"?>
<!DOCTYPE svg PUBLIC "-//W3C//DTD SVG 1.1//EN" "http://www.w3.org/Graphics/SVG/1.1/DTD/svg11.dtd">
<svg version="1.1" xmlns="http://www.w3.org/2000/svg" xmlns:xlink="http://www.w3.org/1999/xlink" preserveAspectRatio="xMidYMid meet" viewBox="0 0 2330 500" width="1864" height="400"><defs><path d="M2223.19 298.51L2168.43 304.45L2114.35 310.24L2060.95 315.87L2008.22 321.34L1956.18 326.65L1904.82 331.8L1854.14 336.79L1804.14 341.63L1754.82 346.31L1706.19 350.83L1658.23 355.19L1610.95 359.39L1564.35 363.43L1518.44 367.31L1473.2 371.04L1428.65 374.61L1384.77 378.02L1341.58 381.27L1299.06 384.36L1257.23 387.29L1216.08 390.06L1175.6 392.68L1135.81 395.14L1096.7 397.44L1058.27 399.58L1020.52 401.56L983.45 403.38L947.06 405.05L911.35 406.55L876.32 407.9L841.98 409.09L808.31 410.12L775.32 410.99L743.01 411.71L711.39 412.26L680.44 412.66L650.18 412.89L620.59 412.97L591.69 412.89L563.48 412.66L535.95 412.26L509.11 411.71L482.95 410.99L457.49 410.12L432.7 409.09L408.61 407.9L385.2 406.55L362.48 405.05L340.44 403.38L319.09 401.56L298.43 399.58L278.45 397.44L259.16 395.14L240.56 392.68L222.64 390.06L205.41 387.29L188.86 384.36L173.01 381.27L157.83 378.02L143.35 374.61L129.55 371.04L116.44 367.31L104.01 363.43L92.27 359.39L81.22 355.19L70.85 350.83L61.17 346.31L52.18 341.63L43.87 336.79L36.25 331.8L29.32 326.65L23.07 321.34L17.51 315.87L12.63 310.24L8.45 304.45L4.94 298.51L2.13 292.4L0 286.14L2334.76 286.14L2278.64 292.4L2223.19 298.51ZM-4.76 286.14L-4.76 0L2328.03 0L2328.03 286.14L-4.76 286.14Z" id="a3ngo9lQv9"></path><linearGradient id="gradientc3dYyPCYME" gradientUnits="userSpaceOnUse" x1="1820.42" y1="-17.11" x2="357.64" y2="498.11"><stop style="stop-color: #22a3c3;stop-opacity: 1" offset="0%"></stop><stop style="stop-color: #2570a5;stop-opacity: 1" offset="100%"></stop></linearGradient></defs><g><g><g><g><filter id="shadow4868222" x="-45.76" y="-41" width="2451.52" height="494.97" filterUnits="userSpaceOnUse" primitiveUnits="userSpaceOnUse"><feFlood></feFlood><feComposite in2="SourceAlpha" operator="in"></feComposite><feGaussianBlur stdDeviation="1"></feGaussianBlur><feOffset dx="-30" dy="0" result="afterOffset"></feOffset><feFlood flood-color="#83aec7" flood-opacity="0.5"></feFlood><feComposite in2="afterOffset" operator="in"></feComposite><feMorphology operator="dilate" radius="4"></feMorphology><feComposite in2="SourceAlpha" operator="out"></feComposite></filter><path d="M2223.19 298.51L2168.43 304.45L2114.35 310.24L2060.95 315.87L2008.22 321.34L1956.18 326.65L1904.82 331.8L1854.14 336.79L1804.14 341.63L1754.82 346.31L1706.19 350.83L1658.23 355.19L1610.95 359.39L1564.35 363.43L1518.44 367.31L1473.2 371.04L1428.65 374.61L1384.77 378.02L1341.58 381.27L1299.06 384.36L1257.23 387.29L1216.08 390.06L1175.6 392.68L1135.81 395.14L1096.7 397.44L1058.27 399.58L1020.52 401.56L983.45 403.38L947.06 405.05L911.35 406.55L876.32 407.9L841.98 409.09L808.31 410.12L775.32 410.99L743.01 411.71L711.39 412.26L680.44 412.66L650.18 412.89L620.59 412.97L591.69 412.89L563.48 412.66L535.95 412.26L509.11 411.71L482.95 410.99L457.49 410.12L432.7 409.09L408.61 407.9L385.2 406.55L362.48 405.05L340.44 403.38L319.09 401.56L298.43 399.58L278.45 397.44L259.16 395.14L240.56 392.68L222.64 390.06L205.41 387.29L188.86 384.36L173.01 381.27L157.83 378.02L143.35 374.61L129.55 371.04L116.44 367.31L104.01 363.43L92.27 359.39L81.22 355.19L70.85 350.83L61.17 346.31L52.18 341.63L43.87 336.79L36.25 331.8L29.32 326.65L23.07 321.34L17.51 315.87L12.63 310.24L8.45 304.45L4.94 298.51L2.13 292.4L0 286.14L2334.76 286.14L2278.64 292.4L2223.19 298.51ZM-4.76 286.14L-4.76 0L2328.03 0L2328.03 286.14L-4.76 286.14Z" id="h4L4daGRk8" fill="white" fill-opacity="1" filter="url(#shadow4868222)"></path></g><use xlink:href="#a3ngo9lQv9" opacity="1" fill="url(#gradientc3dYyPCYME)"></use></g></g></g></svg>