<?xml version="1.0" encoding="UTF-8" standalone="no"?>
<!DOCTYPE svg PUBLIC "-//W3C//DTD SVG 1.1//EN" "http://www.w3.org/Graphics/SVG/1.1/DTD/svg11.dtd">
<svg version="1.1" xmlns="http://www.w3.org/2000/svg" xmlns:xlink="http://www.w3.org/1999/xlink" preserveAspectRatio="xMidYMid meet" viewBox="0 0 2330 500" width="1864" height="400"><defs><path d="M2327.87 292.4L2325.06 298.51L2321.55 304.45L2317.37 310.24L2312.49 315.87L2306.93 321.34L2300.68 326.65L2293.75 331.8L2286.13 336.79L2277.82 341.63L2268.83 346.31L2259.15 350.83L2248.78 355.19L2237.73 359.39L2225.99 363.43L2213.56 367.31L2200.45 371.04L2186.65 374.61L2172.17 378.02L2156.99 381.27L2141.14 384.36L2124.59 387.29L2107.36 390.06L2089.44 392.68L2070.84 395.14L2051.55 397.44L2031.57 399.58L2010.91 401.56L1989.56 403.38L1967.52 405.05L1944.8 406.55L1921.39 407.9L1897.3 409.09L1872.51 410.12L1847.05 410.99L1820.89 411.71L1794.05 412.26L1766.52 412.66L1738.31 412.89L1709.41 412.97L1679.82 412.89L1649.56 412.66L1618.61 412.26L1586.99 411.71L1554.68 410.99L1521.69 410.12L1488.02 409.09L1453.68 407.9L1418.65 406.55L1382.94 405.05L1346.55 403.38L1309.48 401.56L1271.73 399.58L1233.3 397.44L1194.19 395.14L1154.4 392.68L1113.92 390.06L1072.77 387.29L1030.94 384.36L988.42 381.27L945.23 378.02L901.35 374.61L856.8 371.04L811.56 367.31L765.65 363.43L719.05 359.39L671.77 355.19L623.81 350.83L575.18 346.31L525.86 341.63L475.86 336.79L425.18 331.8L373.82 326.65L321.78 321.34L269.05 315.87L215.65 310.24L161.57 304.45L106.81 298.51L51.36 292.4L-4.76 286.14L2330 286.14L2327.87 292.4ZM1.97 286.14L1.97 0L2334.76 0L2334.76 286.14L1.97 286.14Z" id="b6jPyFXBh9"></path><linearGradient id="gradientmqzVmbSLL" gradientUnits="userSpaceOnUse" x1="509.58" y1="-17.11" x2="1972.36" y2="498.11"><stop style="stop-color: #22a3c3;stop-opacity: 1" offset="0%"></stop><stop style="stop-color: #2570a5;stop-opacity: 1" offset="100%"></stop></linearGradient></defs><g><g><g><g><filter id="shadow2757621" x="-45.76" y="-41" width="2451.52" height="494.97" filterUnits="userSpaceOnUse" primitiveUnits="userSpaceOnUse"><feFlood></feFlood><feComposite in2="SourceAlpha" operator="in"></feComposite><feGaussianBlur stdDeviation="1"></feGaussianBlur><feOffset dx="30" dy="0" result="afterOffset"></feOffset><feFlood flood-color="#83aec7" flood-opacity="0.5"></feFlood><feComposite in2="afterOffset" operator="in"></feComposite><feMorphology operator="dilate" radius="4"></feMorphology><feComposite in2="SourceAlpha" operator="out"></feComposite></filter><path d="M2327.87 292.4L2325.06 298.51L2321.55 304.45L2317.37 310.24L2312.49 315.87L2306.93 321.34L2300.68 326.65L2293.75 331.8L2286.13 336.79L2277.82 341.63L2268.83 346.31L2259.15 350.83L2248.78 355.19L2237.73 359.39L2225.99 363.43L2213.56 367.31L2200.45 371.04L2186.65 374.61L2172.17 378.02L2156.99 381.27L2141.14 384.36L2124.59 387.29L2107.36 390.06L2089.44 392.68L2070.84 395.14L2051.55 397.44L2031.57 399.58L2010.91 401.56L1989.56 403.38L1967.52 405.05L1944.8 406.55L1921.39 407.9L1897.3 409.09L1872.51 410.12L1847.05 410.99L1820.89 411.71L1794.05 412.26L1766.52 412.66L1738.31 412.89L1709.41 412.97L1679.82 412.89L1649.56 412.66L1618.61 412.26L1586.99 411.71L1554.68 410.99L1521.69 410.12L1488.02 409.09L1453.68 407.9L1418.65 406.55L1382.94 405.05L1346.55 403.38L1309.48 401.56L1271.73 399.58L1233.3 397.44L1194.19 395.14L1154.4 392.68L1113.92 390.06L1072.77 387.29L1030.94 384.36L988.42 381.27L945.23 378.02L901.35 374.61L856.8 371.04L811.56 367.31L765.65 363.43L719.05 359.39L671.77 355.19L623.81 350.83L575.18 346.31L525.86 341.63L475.86 336.79L425.18 331.8L373.82 326.65L321.78 321.34L269.05 315.87L215.65 310.24L161.57 304.45L106.81 298.51L51.36 292.4L-4.76 286.14L2330 286.14L2327.87 292.4ZM1.97 286.14L1.97 0L2334.76 0L2334.76 286.14L1.97 286.14Z" id="a14PUPbaSd" fill="white" fill-opacity="1" filter="url(#shadow2757621)"></path></g><use xlink:href="#b6jPyFXBh9" opacity="1" fill="url(#gradientmqzVmbSLL)"></use></g></g></g></svg>