<?xml version="1.0" encoding="UTF-8" standalone="no"?>
<!DOCTYPE svg PUBLIC "-//W3C//DTD SVG 1.1//EN" "http://www.w3.org/Graphics/SVG/1.1/DTD/svg11.dtd">
<svg version="1.1" xmlns="http://www.w3.org/2000/svg" xmlns:xlink="http://www.w3.org/1999/xlink" preserveAspectRatio="xMidYMid meet" viewBox="0 0 2330 1450" width="2330" height="1450"><defs><path d="M2270.12 1198.83L2239.69 1208.67L2209.41 1218.28L2179.27 1227.67L2149.28 1236.83L2119.43 1245.78L2089.73 1254.5L2060.17 1263L2030.76 1271.27L2001.49 1279.32L1972.36 1287.15L1943.38 1294.76L1914.54 1302.14L1885.85 1309.3L1857.3 1316.24L1828.9 1322.96L1800.64 1329.45L1772.53 1335.72L1744.56 1341.77L1716.74 1347.59L1689.06 1353.19L1661.52 1358.57L1634.13 1363.73L1606.88 1368.66L1579.78 1373.37L1552.83 1377.85L1526.01 1382.12L1499.35 1386.16L1472.82 1389.98L1446.44 1393.57L1420.21 1396.95L1394.12 1400.1L1368.18 1403.02L1342.38 1405.73L1316.72 1408.21L1291.21 1410.47L1265.84 1412.5L1240.62 1414.32L1215.54 1415.91L1200.12 1416.76L1184.85 1417.47L1169.74 1418.06L1154.78 1418.51L1139.97 1418.82L1125.31 1419L1110.81 1419.05L1096.46 1418.97L1082.27 1418.75L1068.22 1418.4L1054.33 1417.92L1040.6 1417.3L1027.01 1416.55L1013.58 1415.66L1000.31 1414.65L987.18 1413.49L974.21 1412.21L961.4 1410.79L948.73 1409.24L936.22 1407.55L923.86 1405.74L911.66 1403.78L899.61 1401.7L887.71 1399.48L875.96 1397.13L864.37 1394.64L852.93 1392.02L841.64 1389.27L830.51 1386.38L819.53 1383.36L808.71 1380.21L798.03 1376.93L787.51 1373.51L777.14 1369.95L766.93 1366.27L756.87 1362.45L746.96 1358.49L737.21 1354.41L727.61 1350.19L718.16 1345.83L705.13 1339.87L692 1334.22L678.77 1328.88L665.46 1323.85L652.06 1319.14L638.59 1314.74L625.05 1310.65L611.44 1306.88L597.76 1303.42L584.03 1300.27L570.25 1297.44L556.43 1294.91L542.57 1292.7L528.67 1290.81L514.74 1289.22L500.79 1287.95L486.81 1286.99L472.83 1286.35L458.84 1286.01L444.85 1285.99L430.85 1286.28L416.87 1286.88L402.9 1287.8L388.95 1289.03L375.03 1290.57L361.13 1292.42L347.27 1294.58L333.45 1297.06L319.68 1299.84L305.96 1302.94L292.29 1306.35L278.69 1310.08L265.15 1314.11L251.69 1318.46L238.3 1323.12L225 1328.08L211.79 1333.37L198.67 1338.96L185.65 1344.86L172.73 1351.08L-3.31 1438.28L1.41 1178.49L2331.41 1178.49L2300.69 1188.77L2270.12 1198.83ZM1.41 1178.49L1.41 268.57L122.97 190.41L136.76 181.76L150.72 173.44L164.82 165.47L179.07 157.83L193.46 150.54L207.99 143.58L222.64 136.97L237.41 130.7L252.3 124.77L267.3 119.19L282.4 113.95L297.6 109.05L312.89 104.5L328.26 100.29L343.71 96.44L359.24 92.93L374.84 89.77L390.49 86.96L406.2 84.5L421.96 82.39L437.77 80.63L453.61 79.22L469.48 78.17L485.37 77.47L501.29 77.13L517.22 77.14L533.15 77.51L549.09 78.23L565.02 79.31L580.94 80.75L596.84 82.55L612.72 84.71L628.57 87.23L644.38 90.1L660.16 93.35L675.88 96.95L691.56 100.92L707.17 105.25L722.72 109.95L738.19 115.01L748.75 118.53L759.39 121.96L770.12 125.29L780.94 128.52L791.86 131.66L802.87 134.7L813.96 137.64L825.15 140.49L836.43 143.24L847.8 145.89L859.26 148.45L870.81 150.92L882.45 153.28L894.18 155.55L906.01 157.73L917.92 159.81L929.93 161.79L942.02 163.67L954.21 165.46L966.49 167.15L978.86 168.75L991.32 170.25L1003.87 171.65L1016.51 172.96L1029.24 174.17L1042.06 175.29L1054.98 176.31L1067.98 177.23L1081.08 178.06L1094.26 178.79L1107.54 179.42L1120.91 179.96L1134.37 180.4L1147.92 180.75L1161.56 180.99L1175.29 181.15L1189.11 181.2L1203.03 181.16L1217.03 181.03L1231.13 180.8L1255.22 180.22L1279.48 179.45L1303.92 178.48L1328.53 177.32L1353.33 175.96L1378.29 174.4L1403.43 172.64L1428.75 170.69L1454.24 168.54L1479.9 166.2L1505.75 163.65L1531.76 160.91L1557.96 157.98L1584.32 154.85L1610.87 151.52L1637.58 147.99L1664.48 144.27L1691.55 140.35L1718.79 136.23L1746.21 131.92L1773.8 127.4L1801.57 122.7L1829.52 117.79L1857.64 112.69L1885.94 107.39L1914.41 101.9L1943.05 96.21L1971.88 90.32L2000.87 84.24L2030.04 77.95L2059.39 71.48L2088.91 64.8L2118.61 57.93L2148.49 50.86L2178.53 43.59L2208.76 36.13L2239.16 28.47L2269.73 20.62L2300.48 12.56L2331.41 4.31L2331.41 1178.49L1.41 1178.49Z" id="f38mXMKd8q"></path><linearGradient id="gradientcb7x4plea" gradientUnits="userSpaceOnUse" x1="1310.51" y1="4.31" x2="2088.02" y2="1574.35"><stop style="stop-color: #22a3c3;stop-opacity: 1" offset="0%"></stop><stop style="stop-color: #2570a5;stop-opacity: 1" offset="100%"></stop></linearGradient></defs><g><g><g><g><filter id="shadow6529622" x="-44.31" y="-36.69" width="2446.72" height="1515.97" filterUnits="userSpaceOnUse" primitiveUnits="userSpaceOnUse"><feFlood></feFlood><feComposite in2="SourceAlpha" operator="in"></feComposite><feGaussianBlur stdDeviation="1"></feGaussianBlur><feOffset dx="-30" dy="0" result="afterOffset"></feOffset><feFlood flood-color="#83aec7" flood-opacity="0.5"></feFlood><feComposite in2="afterOffset" operator="in"></feComposite><feMorphology operator="dilate" radius="4"></feMorphology><feComposite in2="SourceAlpha" operator="out"></feComposite></filter><path d="M2270.12 1198.83L2239.69 1208.67L2209.41 1218.28L2179.27 1227.67L2149.28 1236.83L2119.43 1245.78L2089.73 1254.5L2060.17 1263L2030.76 1271.27L2001.49 1279.32L1972.36 1287.15L1943.38 1294.76L1914.54 1302.14L1885.85 1309.3L1857.3 1316.24L1828.9 1322.96L1800.64 1329.45L1772.53 1335.72L1744.56 1341.77L1716.74 1347.59L1689.06 1353.19L1661.52 1358.57L1634.13 1363.73L1606.88 1368.66L1579.78 1373.37L1552.83 1377.85L1526.01 1382.12L1499.35 1386.16L1472.82 1389.98L1446.44 1393.57L1420.21 1396.95L1394.12 1400.1L1368.18 1403.02L1342.38 1405.73L1316.72 1408.21L1291.21 1410.47L1265.84 1412.5L1240.62 1414.32L1215.54 1415.91L1200.12 1416.76L1184.85 1417.47L1169.74 1418.06L1154.78 1418.51L1139.97 1418.82L1125.31 1419L1110.81 1419.05L1096.46 1418.97L1082.27 1418.75L1068.22 1418.4L1054.33 1417.92L1040.6 1417.3L1027.01 1416.55L1013.58 1415.66L1000.31 1414.65L987.18 1413.49L974.21 1412.21L961.4 1410.79L948.73 1409.24L936.22 1407.55L923.86 1405.74L911.66 1403.78L899.61 1401.7L887.71 1399.48L875.96 1397.13L864.37 1394.64L852.93 1392.02L841.64 1389.27L830.51 1386.38L819.53 1383.36L808.71 1380.21L798.03 1376.93L787.51 1373.51L777.14 1369.95L766.93 1366.27L756.87 1362.45L746.96 1358.49L737.21 1354.41L727.61 1350.19L718.16 1345.83L705.13 1339.87L692 1334.22L678.77 1328.88L665.46 1323.85L652.06 1319.14L638.59 1314.74L625.05 1310.65L611.44 1306.88L597.76 1303.42L584.03 1300.27L570.25 1297.44L556.43 1294.91L542.57 1292.7L528.67 1290.81L514.74 1289.22L500.79 1287.95L486.81 1286.99L472.83 1286.35L458.84 1286.01L444.85 1285.99L430.85 1286.28L416.87 1286.88L402.9 1287.8L388.95 1289.03L375.03 1290.57L361.13 1292.42L347.27 1294.58L333.45 1297.06L319.68 1299.84L305.96 1302.94L292.29 1306.35L278.69 1310.08L265.15 1314.11L251.69 1318.46L238.3 1323.12L225 1328.08L211.79 1333.37L198.67 1338.96L185.65 1344.86L172.73 1351.08L-3.31 1438.28L1.41 1178.49L2331.41 1178.49L2300.69 1188.77L2270.12 1198.83ZM1.41 1178.49L1.41 268.57L122.97 190.41L136.76 181.76L150.72 173.44L164.82 165.47L179.07 157.83L193.46 150.54L207.99 143.58L222.64 136.97L237.41 130.7L252.3 124.77L267.3 119.19L282.4 113.95L297.6 109.05L312.89 104.5L328.26 100.29L343.71 96.44L359.24 92.93L374.84 89.77L390.49 86.96L406.2 84.5L421.96 82.39L437.77 80.63L453.61 79.22L469.48 78.17L485.37 77.47L501.29 77.13L517.22 77.14L533.15 77.51L549.09 78.23L565.02 79.31L580.94 80.75L596.84 82.55L612.72 84.71L628.57 87.23L644.38 90.1L660.16 93.35L675.88 96.95L691.56 100.92L707.17 105.25L722.72 109.95L738.19 115.01L748.75 118.53L759.39 121.96L770.12 125.29L780.94 128.52L791.86 131.66L802.87 134.7L813.96 137.64L825.15 140.49L836.43 143.24L847.8 145.89L859.26 148.45L870.81 150.92L882.45 153.28L894.18 155.55L906.01 157.73L917.92 159.81L929.93 161.79L942.02 163.67L954.21 165.46L966.49 167.15L978.86 168.75L991.32 170.25L1003.87 171.65L1016.51 172.96L1029.24 174.17L1042.06 175.29L1054.98 176.31L1067.98 177.23L1081.08 178.06L1094.26 178.79L1107.54 179.42L1120.91 179.96L1134.37 180.4L1147.92 180.75L1161.56 180.99L1175.29 181.15L1189.11 181.2L1203.03 181.16L1217.03 181.03L1231.13 180.8L1255.22 180.22L1279.48 179.45L1303.92 178.48L1328.53 177.32L1353.33 175.96L1378.29 174.4L1403.43 172.64L1428.75 170.69L1454.24 168.54L1479.9 166.2L1505.75 163.65L1531.76 160.91L1557.96 157.98L1584.32 154.85L1610.87 151.52L1637.58 147.99L1664.48 144.27L1691.55 140.35L1718.79 136.23L1746.21 131.92L1773.8 127.4L1801.57 122.7L1829.52 117.79L1857.64 112.69L1885.94 107.39L1914.41 101.9L1943.05 96.21L1971.88 90.32L2000.87 84.24L2030.04 77.95L2059.39 71.48L2088.91 64.8L2118.61 57.93L2148.49 50.86L2178.53 43.59L2208.76 36.13L2239.16 28.47L2269.73 20.62L2300.48 12.56L2331.41 4.31L2331.41 1178.49L1.41 1178.49Z" id="a1tMmIf0yL" fill="white" fill-opacity="1" filter="url(#shadow6529622)"></path></g><use xlink:href="#f38mXMKd8q" opacity="1" fill="url(#gradientcb7x4plea)"></use></g></g></g></svg>