<?xml version="1.0" encoding="UTF-8" standalone="no"?>
<!DOCTYPE svg PUBLIC "-//W3C//DTD SVG 1.1//EN" "http://www.w3.org/Graphics/SVG/1.1/DTD/svg11.dtd">
<svg version="1.1" xmlns="http://www.w3.org/2000/svg" xmlns:xlink="http://www.w3.org/1999/xlink" preserveAspectRatio="xMidYMid meet" viewBox="0 0 2330 1450" width="2330" height="1450"><defs><path d="M2167.88 1270.93L2153.8 1278.88L2139.6 1286.57L2125.29 1294.01L2110.87 1301.2L2096.35 1308.14L2081.73 1314.83L2067.01 1321.26L2052.2 1327.44L2037.3 1333.36L2022.31 1339.03L2007.24 1344.45L1992.08 1349.61L1976.85 1354.51L1961.55 1359.15L1946.17 1363.54L1930.73 1367.66L1915.23 1371.53L1899.66 1375.13L1884.04 1378.48L1868.36 1381.56L1852.63 1384.38L1836.86 1386.94L1821.04 1389.23L1805.18 1391.26L1789.28 1393.02L1773.35 1394.51L1757.39 1395.74L1741.41 1396.71L1725.4 1397.4L1709.36 1397.83L1693.31 1397.98L1677.25 1397.87L1661.18 1397.48L1645.1 1396.83L1629.02 1395.9L1612.93 1394.69L1596.85 1393.22L1580.78 1391.47L1564.71 1389.45L1541.65 1386.37L1518.74 1383.39L1495.98 1380.49L1473.38 1377.67L1450.94 1374.95L1428.64 1372.31L1406.51 1369.75L1384.53 1367.28L1362.7 1364.9L1341.03 1362.61L1319.51 1360.4L1298.14 1358.27L1276.93 1356.24L1255.88 1354.29L1234.98 1352.42L1214.23 1350.64L1193.64 1348.95L1173.21 1347.35L1152.93 1345.83L1132.8 1344.39L1112.83 1343.05L1093.01 1341.79L1073.35 1340.61L1053.84 1339.53L1034.48 1338.53L1015.28 1337.61L996.24 1336.78L977.35 1336.04L958.61 1335.38L940.03 1334.81L921.61 1334.33L903.33 1333.93L885.22 1333.62L867.25 1333.4L849.45 1333.26L831.79 1333.21L814.29 1333.24L796.95 1333.36L779.76 1333.57L762.72 1333.86L738.84 1334.39L715.2 1335.02L691.8 1335.75L668.65 1336.58L645.73 1337.51L623.05 1338.54L600.61 1339.68L578.42 1340.91L556.46 1342.25L534.75 1343.69L513.28 1345.23L492.04 1346.87L471.05 1348.61L450.3 1350.46L429.79 1352.4L409.52 1354.45L389.49 1356.6L369.7 1358.85L350.16 1361.2L330.85 1363.65L311.79 1366.2L292.96 1368.86L274.38 1371.61L256.03 1374.47L237.93 1377.43L220.07 1380.49L202.45 1383.65L185.07 1386.91L167.93 1390.28L151.03 1393.74L134.37 1397.31L117.95 1400.98L101.78 1404.75L85.84 1408.62L70.15 1412.59L54.69 1416.66L39.48 1420.84L24.51 1425.11L9.77 1429.49L-4.72 1433.97L0 1174.18L2330 1174.18L2181.85 1262.74L2167.88 1270.93ZM0 1174.18L0 264.25L121.56 186.09L135.36 177.44L149.31 169.13L163.42 161.16L177.67 153.52L192.06 146.23L206.58 139.27L221.23 132.66L236 126.39L250.89 120.46L265.89 114.87L280.99 109.63L296.19 104.74L311.48 100.19L326.85 95.98L342.31 92.13L357.84 88.62L373.43 85.46L389.09 82.65L404.8 80.19L420.56 78.08L436.36 76.32L452.2 74.91L468.07 73.86L483.97 73.16L499.88 72.82L515.81 72.83L531.75 73.19L547.68 73.92L563.61 75L579.53 76.44L595.43 78.24L611.31 80.39L627.16 82.91L642.98 85.79L658.75 89.03L674.48 92.64L690.15 96.61L705.76 100.94L721.31 105.64L736.79 110.7L747.34 114.22L757.98 117.65L768.71 120.97L779.54 124.21L790.45 127.34L801.46 130.38L812.56 133.33L823.74 136.18L835.02 138.93L846.39 141.58L857.85 144.14L869.4 146.6L881.04 148.97L892.78 151.24L904.6 153.41L916.51 155.49L928.52 157.47L940.62 159.36L952.8 161.15L965.08 162.84L977.45 164.44L989.91 165.94L1002.46 167.34L1015.1 168.65L1027.83 169.86L1040.66 170.98L1053.57 172L1066.58 172.92L1079.67 173.74L1092.86 174.47L1106.14 175.11L1119.5 175.65L1132.96 176.09L1146.51 176.43L1160.15 176.68L1173.89 176.83L1187.71 176.89L1201.62 176.85L1215.63 176.72L1229.72 176.48L1253.81 175.91L1278.07 175.14L1302.51 174.17L1327.13 173L1351.92 171.64L1376.88 170.08L1402.02 168.33L1427.34 166.38L1452.83 164.23L1478.5 161.88L1504.34 159.34L1530.36 156.6L1556.55 153.67L1582.92 150.53L1609.46 147.2L1636.18 143.68L1663.07 139.95L1690.14 136.03L1717.38 131.92L1744.8 127.6L1772.4 123.09L1800.17 118.38L1828.11 113.48L1856.23 108.38L1884.53 103.08L1913 97.59L1941.65 91.9L1970.47 86.01L1999.47 79.92L2028.64 73.64L2057.99 67.16L2087.51 60.49L2117.21 53.62L2147.08 46.55L2177.13 39.28L2207.35 31.82L2237.75 24.16L2268.33 16.3L2299.08 8.25L2330 0L2330 1174.18L0 1174.18Z" id="b48pFKcsXo"></path><linearGradient id="gradientc4FFxkOhU" gradientUnits="userSpaceOnUse" x1="1309.1" y1="0" x2="2086.61" y2="1570.04"><stop style="stop-color: #22a3c3;stop-opacity: 1" offset="0%"></stop><stop style="stop-color: #2570a5;stop-opacity: 1" offset="100%"></stop></linearGradient></defs><g><g><g><g><filter id="shadow16472515" x="-45.72" y="-41" width="2446.72" height="1515.97" filterUnits="userSpaceOnUse" primitiveUnits="userSpaceOnUse"><feFlood></feFlood><feComposite in2="SourceAlpha" operator="in"></feComposite><feGaussianBlur stdDeviation="1"></feGaussianBlur><feOffset dx="-30" dy="0" result="afterOffset"></feOffset><feFlood flood-color="#83aec7" flood-opacity="0.5"></feFlood><feComposite in2="afterOffset" operator="in"></feComposite><feMorphology operator="dilate" radius="4"></feMorphology><feComposite in2="SourceAlpha" operator="out"></feComposite></filter><path d="M2167.88 1270.93L2153.8 1278.88L2139.6 1286.57L2125.29 1294.01L2110.87 1301.2L2096.35 1308.14L2081.73 1314.83L2067.01 1321.26L2052.2 1327.44L2037.3 1333.36L2022.31 1339.03L2007.24 1344.45L1992.08 1349.61L1976.85 1354.51L1961.55 1359.15L1946.17 1363.54L1930.73 1367.66L1915.23 1371.53L1899.66 1375.13L1884.04 1378.48L1868.36 1381.56L1852.63 1384.38L1836.86 1386.94L1821.04 1389.23L1805.18 1391.26L1789.28 1393.02L1773.35 1394.51L1757.39 1395.74L1741.41 1396.71L1725.4 1397.4L1709.36 1397.83L1693.31 1397.98L1677.25 1397.87L1661.18 1397.48L1645.1 1396.83L1629.02 1395.9L1612.93 1394.69L1596.85 1393.22L1580.78 1391.47L1564.71 1389.45L1541.65 1386.37L1518.74 1383.39L1495.98 1380.49L1473.38 1377.67L1450.94 1374.95L1428.64 1372.31L1406.51 1369.75L1384.53 1367.28L1362.7 1364.9L1341.03 1362.61L1319.51 1360.4L1298.14 1358.27L1276.93 1356.24L1255.88 1354.29L1234.98 1352.42L1214.23 1350.64L1193.64 1348.95L1173.21 1347.35L1152.93 1345.83L1132.8 1344.39L1112.83 1343.05L1093.01 1341.79L1073.35 1340.61L1053.84 1339.53L1034.48 1338.53L1015.28 1337.61L996.24 1336.78L977.35 1336.04L958.61 1335.38L940.03 1334.81L921.61 1334.33L903.33 1333.93L885.22 1333.62L867.25 1333.4L849.45 1333.26L831.79 1333.21L814.29 1333.24L796.95 1333.36L779.76 1333.57L762.72 1333.86L738.84 1334.39L715.2 1335.02L691.8 1335.75L668.65 1336.58L645.73 1337.51L623.05 1338.54L600.61 1339.68L578.42 1340.91L556.46 1342.25L534.75 1343.69L513.28 1345.23L492.04 1346.87L471.05 1348.61L450.3 1350.46L429.79 1352.4L409.52 1354.45L389.49 1356.6L369.7 1358.85L350.16 1361.2L330.85 1363.65L311.79 1366.2L292.96 1368.86L274.38 1371.61L256.03 1374.47L237.93 1377.43L220.07 1380.49L202.45 1383.65L185.07 1386.91L167.93 1390.28L151.03 1393.74L134.37 1397.31L117.95 1400.98L101.78 1404.75L85.84 1408.62L70.15 1412.59L54.69 1416.66L39.48 1420.84L24.51 1425.11L9.77 1429.49L-4.72 1433.97L0 1174.18L2330 1174.18L2181.85 1262.74L2167.88 1270.93ZM0 1174.18L0 264.25L121.56 186.09L135.36 177.44L149.31 169.13L163.42 161.16L177.67 153.52L192.06 146.23L206.58 139.27L221.23 132.66L236 126.39L250.89 120.46L265.89 114.87L280.99 109.63L296.19 104.74L311.48 100.19L326.85 95.98L342.31 92.13L357.84 88.62L373.43 85.46L389.09 82.65L404.8 80.19L420.56 78.08L436.36 76.32L452.2 74.91L468.07 73.86L483.97 73.16L499.88 72.82L515.81 72.83L531.75 73.19L547.68 73.92L563.61 75L579.53 76.44L595.43 78.24L611.31 80.39L627.16 82.91L642.98 85.79L658.75 89.03L674.48 92.64L690.15 96.61L705.76 100.94L721.31 105.64L736.79 110.7L747.34 114.22L757.98 117.65L768.71 120.97L779.54 124.21L790.45 127.34L801.46 130.38L812.56 133.33L823.74 136.18L835.02 138.93L846.39 141.58L857.85 144.14L869.4 146.6L881.04 148.97L892.78 151.24L904.6 153.41L916.51 155.49L928.52 157.47L940.62 159.36L952.8 161.15L965.08 162.84L977.45 164.44L989.91 165.94L1002.46 167.34L1015.1 168.65L1027.83 169.86L1040.66 170.98L1053.57 172L1066.58 172.92L1079.67 173.74L1092.86 174.47L1106.14 175.11L1119.5 175.65L1132.96 176.09L1146.51 176.43L1160.15 176.68L1173.89 176.83L1187.71 176.89L1201.62 176.85L1215.63 176.72L1229.72 176.48L1253.81 175.91L1278.07 175.14L1302.51 174.17L1327.13 173L1351.92 171.64L1376.88 170.08L1402.02 168.33L1427.34 166.38L1452.83 164.23L1478.5 161.88L1504.34 159.34L1530.36 156.6L1556.55 153.67L1582.92 150.53L1609.46 147.2L1636.18 143.68L1663.07 139.95L1690.14 136.03L1717.38 131.92L1744.8 127.6L1772.4 123.09L1800.17 118.38L1828.11 113.48L1856.23 108.38L1884.53 103.08L1913 97.59L1941.65 91.9L1970.47 86.01L1999.47 79.92L2028.64 73.64L2057.99 67.16L2087.51 60.49L2117.21 53.62L2147.08 46.55L2177.13 39.28L2207.35 31.82L2237.75 24.16L2268.33 16.3L2299.08 8.25L2330 0L2330 1174.18L0 1174.18Z" id="b4xRKQ4qkT" fill="white" fill-opacity="1" filter="url(#shadow16472515)"></path></g><use xlink:href="#b48pFKcsXo" opacity="1" fill="url(#gradientc4FFxkOhU)"></use></g></g></g></svg>